<svg width="1712" height="2760" viewBox="0 0 1712 2760" fill="none" xmlns="http://www.w3.org/2000/svg">
<path d="M1723 4C1645.2 209.713 1567.22 743.389 1141.07 372.06C630.709 -72.6476 310.423 372.06 280.852 525.037C228.185 797.485 377.487 1022.54 897.632 889.829C972.618 870.697 1403.82 776.392 1452.1 1138.91C1508.61 1563.19 1074.01 1636.41 739.213 1340.91C418.253 1057.63 -59.223 1390.6 18.4027 1828.61C77.0571 2159.57 511.616 2243.74 980.539 1861.95C1454.42 1476.13 1623.03 1775.96 1569.86 1991.39C1505.96 2250.28 1323.4 2292.96 1187.5 2261.46C809.5 2173.86 353.2 2332.33 158 2893" stroke="#FD83FB" stroke-width="19"/>
</svg>
